<svg width="24" height="38" viewBox="0 0 24 38" fill="none" xmlns="http://www.w3.org/2000/svg">
<path d="M1 0.7H23C23.1657 0.7 23.3 0.834315 23.3 1V35.365C23.3 35.6193 23.0033 35.7583 22.8079 35.5954L13.0721 27.4823C12.454 26.9672 11.5595 26.9559 10.9286 27.4554L1.18621 35.1681C0.989541 35.3238 0.7 35.1837 0.7 34.9329V0.999999C0.7 0.834315 0.834314 0.7 1 0.7Z" fill="#FA5A67" stroke="#E7525F" stroke-width="1.4"/>
<path d="M10.5104 9.84975L12 5.26525L13.4896 9.84975C13.6369 10.303 14.0592 10.6098 14.5358 10.6098H19.3562L15.4564 13.4432C15.0708 13.7233 14.9095 14.2198 15.0568 14.673L16.5464 19.2575L12.6466 16.4242C12.261 16.1441 11.739 16.1441 11.3534 16.4242L7.45363 19.2575L8.94322 14.673C9.09048 14.2198 8.92916 13.7233 8.54362 13.4432L4.64381 10.6098H9.46424C9.94079 10.6098 10.3631 10.303 10.5104 9.84975Z" fill="white" stroke="white" stroke-width="1.4"/>
</svg>
